<svg width="64" height="48" viewBox="0 0 64 48" fill="none" xmlns="http://www.w3.org/2000/svg">
<path d="M63.9998 25.4287H58.9827V44.998H63.9998V25.4287Z" fill="white"/>
<path d="M38.98 25.4287L30.8352 38.4653V38.4321L29.6691 40.2979L30.8352 36.6526V25.4287H26.5149V45.1376H32.438L44.6161 25.4287H38.98Z" fill="white"/>
<path d="M49.213 25.2871L36.6208 44.9982H42.0766L44.2491 41.4748L46.7843 37.2534L50.1701 31.6625V31.6669L51.4244 29.5817L50.1701 33.7455V37.2534V41.4748V44.9982H55.2119V25.2871H49.213Z" fill="white"/>
<path d="M0 2.75V25.4683L20.2778 47.9118V25.1913L18.5665 22.7271L0 2.75Z" fill="#F7941E"/>
<path d="M36.7539 0.113281L20.2615 13.2098V25.4686L36.7539 12.4031V0.113281Z" fill="#F7941E"/>
</svg>
